<svg version="1.1" id="Layer_1" xmlns="http://www.w3.org/2000/svg" xmlns:xlink="http://www.w3.org/1999/xlink" x="0px" y="0px"
	 width="100%" viewBox="0 0 224 224" enable-background="new 0 0 224 224" xml:space="preserve">
<path fill="#000000" opacity="1.000000" stroke="none" 
	d="
M61.999496,34.986992 
	C53.613205,32.318008 45.252163,29.565239 36.826668,27.026365 
	C33.953018,26.160442 31.009449,24.778141 27.768318,25.931032 
	C28.054077,28.428795 29.916975,27.904579 31.219189,28.167353 
	C41.073391,30.155842 49.852062,34.712490 58.866528,38.943432 
	C65.342186,41.982784 71.590347,46.991814 80.470589,45.088657 
	C72.233665,48.641018 76.293625,52.962399 78.671364,57.197708 
	C79.390938,58.479443 80.219559,59.862759 78.100098,62.297070 
	C72.588730,51.893875 65.944191,42.832161 54.327793,40.340839 
	C51.734501,44.390568 49.280506,48.222767 46.749569,52.175117 
	C41.800549,50.748295 38.378742,46.248894 32.848644,45.364944 
	C33.592388,47.829594 35.503777,47.980389 36.817448,48.843258 
	C50.237534,57.658119 47.961761,67.225761 37.986244,75.959930 
	C31.898645,81.289993 29.791765,80.384865 25.763613,73.345612 
	C22.644165,67.894333 20.671198,62.003170 18.527716,56.135555 
	C18.774290,63.477219 20.775579,70.440041 24.977098,76.236893 
	C27.383602,79.557152 28.368183,82.559456 28.353651,86.451813 
	C28.325346,94.033981 25.137032,101.197311 25.664637,108.994751 
	C20.413992,100.011932 18.310026,89.882156 13.811614,80.717628 
	C13.019524,87.719727 17.517969,93.761780 17.385220,101.044609 
	C12.582607,100.272377 9.482899,98.316101 8.261130,93.978172 
	C7.316524,90.624306 5.358776,88.434906 1.371172,88.019768 
	C1.000000,64.312439 1.000000,40.624878 1.000000,16.468658 
	C1.326790,17.098970 1.866426,18.183369 1.942832,19.299479 
	C2.243461,23.690928 4.371476,24.859798 8.246474,23.033310 
	C12.152176,21.192348 16.251226,23.018049 20.318031,22.208897 
	C25.734524,21.131201 31.140711,20.882915 36.768547,23.365759 
	C40.414272,24.974154 45.250401,23.909786 49.554092,23.993534 
	C53.286880,24.066172 56.559555,24.730051 57.350136,29.206530 
	C57.802074,31.765545 61.006130,32.036839 61.867348,34.695663 
	C61.984756,35.012150 61.999496,34.986992 61.999496,34.986992 
M17.402563,28.695412 
	C19.523119,26.724758 23.164207,27.699322 25.111765,24.973461 
	C19.629652,22.685749 13.998239,25.029823 12.695344,29.956579 
	C14.329610,30.843893 15.443233,29.462381 17.402563,28.695412 
z"/>
<path fill="#000000" opacity="1.000000" stroke="none" 
	d="
M185.531342,1.000000 
	C186.201004,15.615229 187.598145,30.141531 189.315063,44.640312 
	C189.508453,46.273273 189.806259,48.071487 190.651611,49.419258 
	C194.565430,55.659103 195.286850,62.525845 194.873581,69.598976 
	C194.679230,72.925400 195.883408,75.692375 197.187134,78.605751 
	C202.289688,90.008095 204.711044,101.956421 203.915298,114.483009 
	C203.850739,115.499405 203.610718,116.481674 202.301468,116.793304 
	C200.130234,115.779205 200.715149,113.702209 200.809586,112.030518 
	C201.652771,97.103439 196.746475,83.573021 190.898071,70.241463 
	C188.273651,64.259026 187.347672,57.831753 185.937866,51.499512 
	C183.420273,40.191498 186.049026,28.267370 181.019791,17.211189 
	C178.352676,11.347821 175.063446,6.655460 168.993439,3.867245 
	C180.476257,13.719112 181.024002,27.049448 181.135437,41.917130 
	C178.827789,34.822346 179.696426,28.100508 175.063614,22.936085 
	C177.903915,36.187805 179.834534,49.325157 173.240509,61.899654 
	C161.505585,57.738964 166.890869,49.429070 168.945023,42.139282 
	C165.027359,42.245193 166.732742,45.950375 164.096008,46.414112 
	C160.414108,44.704357 164.650940,40.100361 161.547638,37.839157 
	C161.122833,38.404488 160.654709,38.744427 160.601685,39.140007 
	C159.648178,46.254311 158.893066,46.578106 152.123856,43.707809 
	C149.226669,42.479343 147.418015,40.058479 145.068771,38.247154 
	C143.305695,36.887779 143.674179,35.143894 144.959457,33.411049 
	C147.919479,29.420277 150.907944,25.498104 156.413086,23.589602 
	C153.694839,21.774580 151.868225,23.155075 150.607040,24.266043 
	C147.636368,26.882875 144.777481,29.580645 142.718628,33.173862 
	C140.528687,36.995842 141.536224,39.437069 144.751541,41.590084 
	C147.743164,43.593315 150.802902,45.494835 153.628998,47.903080 
	C147.309250,47.697067 141.461304,45.897316 137.007050,41.334953 
	C134.829483,39.104538 137.081161,36.363018 138.067841,33.941406 
	C139.717758,29.891972 143.835083,27.648609 145.964539,23.475060 
	C141.315613,25.130386 133.580414,35.133286 133.303421,39.304443 
	C133.118042,42.095924 134.839691,43.545853 136.900116,44.803783 
	C139.964951,46.674946 143.045029,48.521168 145.943817,51.022518 
	C141.316254,48.938858 135.447433,53.592529 131.938904,48.964996 
	C128.675888,44.661266 123.799973,43.824696 119.734673,41.201836 
	C123.980995,29.457035 133.239960,22.075733 142.775925,13.661782 
	C137.697235,14.445198 134.825897,17.621319 130.992050,19.057713 
	C133.199844,14.392484 137.244629,11.346355 140.500519,7.508922 
	C128.981354,12.298112 122.275459,24.161739 110.184700,28.381599 
	C118.371368,21.194792 124.171562,13.182483 122.058922,1.332989 
	C143.020889,1.000000 164.041794,1.000000 185.531342,1.000000 
M170.505692,13.125769 
	C169.145142,12.032239 168.299622,10.058933 165.348923,10.073965 
	C168.438538,13.817254 170.246017,17.630823 174.171753,20.871664 
	C174.531509,16.997372 171.768311,15.795873 170.505692,13.125769 
z"/>
<path fill="#000000" opacity="1.000000" stroke="none" 
	d="
M57.531364,1.000000 
	C58.256992,3.947948 61.700241,3.390549 63.087364,5.566381 
	C59.865616,8.280322 55.664059,6.078318 52.274670,7.737252 
	C52.984436,9.669036 56.344124,9.920260 55.135719,12.475912 
	C54.094261,14.678490 51.846310,13.235451 50.172539,13.581450 
	C46.603939,14.319143 43.025520,15.021621 39.431690,15.622230 
	C33.413078,16.628075 31.973455,14.714635 32.905006,8.825136 
	C33.275101,6.485278 33.734730,4.086927 33.991928,1.347021 
	C41.687576,1.000000 49.375153,1.000000 57.531364,1.000000 
z"/>
<path fill="#000000" opacity="1.000000" stroke="none" 
	d="
M225.000000,191.531342 
	C220.910248,185.279160 219.682297,177.394852 216.166199,170.408615 
	C213.902969,165.911682 211.514282,161.663040 207.884506,158.109818 
	C206.577103,156.829987 204.925827,155.343628 205.855347,152.747513 
	C208.456268,153.192245 210.129211,155.044708 211.114517,156.918457 
	C213.327621,161.127136 217.894379,162.036224 221.105499,164.792236 
	C222.683395,166.146469 223.826569,164.970535 224.800461,163.236237 
	C225.000000,172.354233 225.000000,181.708450 225.000000,191.531342 
z"/>
<path fill="#000000" opacity="1.000000" stroke="none" 
	d="
M213.479187,225.000000 
	C215.142853,219.893112 211.057220,216.884949 208.318100,212.463898 
	C214.147369,214.078171 218.876877,216.985931 224.666855,216.106354 
	C225.000000,218.932922 225.000000,221.865845 225.000000,225.000000 
	C221.320877,225.000000 217.639618,225.000000 213.479187,225.000000 
z"/>
<path fill="#000000" opacity="1.000000" stroke="none" 
	d="
M1.000000,182.468658 
	C1.286511,182.770065 1.875264,183.565643 1.812746,184.306244 
	C1.192437,191.654739 3.305855,198.317719 7.007840,204.491898 
	C9.199728,208.147522 7.527236,210.926392 5.992770,213.872070 
	C3.545203,213.604523 4.706580,210.797119 2.883686,210.204269 
	C1.217173,212.059250 2.517591,214.510635 1.196013,216.678177 
	C1.000000,205.645767 1.000000,194.291550 1.000000,182.468658 
z"/>
<path fill="#000000" opacity="1.000000" stroke="none" 
	d="
M95.970184,166.969345 
	C98.779068,172.472168 98.179871,178.211868 96.678963,183.818115 
	C96.121300,185.901169 95.260384,187.801407 96.039856,190.076950 
	C89.496033,190.301468 84.216873,186.146088 77.946732,186.408127 
	C93.322014,192.497070 108.225899,200.572418 125.929688,196.584366 
	C124.585457,203.970612 120.160805,209.218307 117.714508,215.354340 
	C117.350449,215.321030 116.869545,215.409790 116.760475,215.247955 
	C111.675171,207.701965 103.923111,206.155396 95.592293,205.284988 
	C90.022049,204.703018 85.370987,201.483414 80.961624,198.110397 
	C79.426964,196.936432 78.306419,195.096848 74.931694,194.744659 
	C78.378639,199.357483 81.733429,202.545029 86.272118,204.704285 
	C88.308914,205.673294 92.402679,206.206558 91.364044,208.993546 
	C90.143433,212.268860 86.789749,209.602127 84.356544,209.218048 
	C78.084274,208.228027 73.509155,204.568588 68.420914,200.926239 
	C63.040703,197.074860 55.530006,196.231186 48.995106,193.944595 
	C46.646244,193.122726 43.692341,193.755554 41.500393,190.976837 
	C47.268166,188.909134 52.608791,186.720062 58.272083,186.146011 
	C64.315445,185.533463 67.918465,191.076874 73.228775,193.901535 
	C71.839066,188.276855 71.839066,188.276855 53.576035,181.919846 
	C59.022156,179.016296 63.864063,176.017212 66.603424,170.615570 
	C70.094147,163.732315 69.530083,156.821198 67.150932,149.858826 
	C64.768692,142.887390 59.958519,137.655609 54.699036,132.736099 
	C53.319725,131.445953 51.272648,130.562454 51.076462,127.848137 
	C57.595848,127.254242 58.763229,119.241051 65.355789,117.571617 
	C64.917915,121.148170 62.821564,123.239525 61.001427,125.489716 
	C57.092678,130.322037 57.732777,132.854935 63.692318,136.241226 
	C63.877411,135.998795 64.272560,135.604431 64.220398,135.531937 
	C60.734928,130.687607 63.302628,127.454857 66.435310,123.450905 
	C71.929955,116.428085 77.425713,109.210075 79.717751,100.256531 
	C80.079483,98.843468 80.461807,97.320686 82.197815,96.759857 
	C84.019485,97.749886 83.019104,99.185341 82.493874,100.176521 
	C80.214790,104.477440 81.133232,109.645287 78.530411,113.918022 
	C77.725739,115.238922 80.448219,116.123108 80.633247,117.989395 
	C81.030632,121.997437 80.190758,125.486572 77.884048,128.770996 
	C76.595192,130.606155 75.937675,132.658173 77.706573,134.730713 
	C79.582726,136.928909 81.478844,136.196045 83.463257,134.946426 
	C85.659737,133.563263 87.502075,134.311798 88.368340,136.458054 
	C89.305466,138.779846 89.722038,141.252213 87.088875,143.153885 
	C84.518272,145.010376 81.154541,145.454453 78.942284,147.900101 
	C77.642838,149.336655 75.350266,150.642212 76.807335,152.861786 
	C78.008995,154.692291 79.771233,152.884567 81.311462,152.602814 
	C85.091316,151.911301 88.503494,150.420029 91.533302,147.945480 
	C93.665649,150.867477 91.237312,152.948669 91.054955,155.578125 
	C88.073242,155.646011 85.072113,154.892990 82.289703,156.506592 
	C80.143684,157.751160 78.367004,159.309860 77.969849,161.701172 
	C77.534325,164.323441 78.597443,166.104050 81.679245,164.935593 
	C84.626015,163.818344 87.549736,162.612411 90.389000,161.248535 
	C92.567490,160.202057 94.884560,158.980576 96.878540,160.821426 
	C98.710739,162.512924 96.659218,164.503326 95.777328,166.674820 
	C89.831451,165.570816 85.417946,166.934784 82.214462,171.681290 
	C81.303871,173.030472 80.956360,174.451401 81.968407,175.843262 
	C82.900589,177.125259 84.264290,177.776672 85.871391,177.602493 
	C89.202553,177.241455 95.643661,170.417282 95.970184,166.969345 
M75.091385,185.017136 
	C75.414993,183.987411 74.683319,183.529999 74.017067,183.038010 
	C68.115250,178.679779 68.115189,178.679871 72.091621,172.383514 
	C75.002396,167.774551 75.404167,163.634552 72.495140,159.104126 
	C72.525429,165.709000 71.053749,171.008286 67.675468,175.248383 
	C64.113983,179.718414 66.617477,181.706543 70.122169,183.607468 
	C71.531006,184.371628 72.860420,185.546585 75.091385,185.017136 
M69.108475,148.421387 
	C69.786392,149.860657 69.455536,152.063156 71.956497,152.424347 
	C71.228455,145.682816 69.159988,141.156113 65.487556,139.019379 
	C66.722801,142.252411 67.771477,144.997147 69.108475,148.421387 
z"/>
<path fill="#000000" opacity="1.000000" stroke="none" 
	d="
M14.879322,129.859802 
	C18.848980,125.876823 23.398909,124.209373 28.843271,124.004158 
	C30.838350,127.882401 30.458866,130.782455 26.015364,132.691772 
	C20.944960,134.870483 17.799568,138.575821 16.888884,144.259827 
	C16.363159,147.541107 15.749884,151.155792 18.522989,153.022888 
	C21.178547,154.810837 24.488012,156.030212 28.353867,154.496994 
	C32.369366,152.904434 37.289551,153.810333 40.777981,149.889954 
	C38.985462,155.491165 43.344288,158.193817 45.782558,161.500092 
	C47.169510,163.380783 49.167614,162.281754 49.787506,160.024017 
	C50.382183,157.858109 49.233528,156.187103 47.872776,154.623550 
	C45.261097,151.622635 43.324730,148.459061 45.068893,144.219223 
	C45.418842,143.368530 45.555614,141.921783 45.075768,141.318558 
	C41.255939,136.516525 41.791256,127.985535 33.080135,127.671059 
	C33.293186,124.938332 34.765354,125.211609 36.312294,125.617615 
	C48.324314,128.770233 66.267509,143.376587 66.780792,157.904083 
	C67.276497,171.934128 53.986202,183.027802 40.536461,178.442825 
	C33.100716,175.908020 28.219748,170.889008 25.092501,163.822617 
	C24.024820,161.410065 23.119795,157.336029 19.573643,158.996063 
	C16.706675,160.338150 17.827414,164.048569 18.932159,166.662140 
	C20.735750,170.928986 22.660507,175.177002 26.410788,178.473389 
	C23.395138,178.134872 21.367329,174.786392 17.765013,177.376129 
	C14.748768,179.544556 14.263697,182.365921 13.338880,185.346008 
	C12.733411,187.297012 12.916240,190.260498 10.218680,190.474869 
	C7.265673,190.709518 7.215098,187.524475 6.799202,185.721542 
	C2.868811,168.683029 2.247645,151.814484 10.367966,135.607956 
	C11.423653,133.501007 12.797129,131.631165 14.879322,129.859802 
M54.732880,146.601990 
	C51.224545,148.280777 52.605385,150.844589 53.902718,152.950790 
	C55.307674,155.231720 57.321201,157.260941 60.433598,156.349335 
	C61.867851,155.929214 62.129631,154.689072 61.717236,153.095627 
	C60.824158,149.644913 58.545765,147.790970 54.732880,146.601990 
M34.081245,167.802567 
	C37.551933,166.363342 37.819008,161.399673 34.554867,158.116058 
	C33.398914,156.953217 32.103443,155.592361 30.328453,156.923340 
	C28.853443,158.029373 29.327555,159.569321 30.036747,160.934082 
	C31.169149,163.113235 32.384773,165.249146 34.081245,167.802567 
z"/>
<path fill="#000000" opacity="1.000000" stroke="none" 
	d="
M137.437714,201.734589 
	C136.545212,201.995224 135.936142,202.129654 134.995453,202.337280 
	C137.896133,195.934235 143.949188,194.990417 149.202347,193.252243 
	C152.687576,192.099014 154.789642,189.943069 156.703934,187.460052 
	C156.742981,185.409058 154.378815,187.329056 154.272278,184.802109 
	C162.564987,179.487976 172.464035,175.528259 179.042068,167.092438 
	C185.601395,158.680649 188.459671,148.546478 192.414017,137.580475 
	C194.727905,148.019440 201.125137,154.752670 206.538406,161.870468 
	C218.268341,177.293900 224.986206,193.946152 222.453857,213.605713 
	C218.063263,214.064667 207.972824,208.608505 207.738617,204.753281 
	C207.488708,200.639801 208.614487,196.388000 208.394043,192.146423 
	C208.200256,188.417892 208.576324,184.336914 203.839905,183.395920 
	C200.941727,184.654388 203.713455,188.165649 200.385498,189.022354 
	C198.273621,187.001328 198.671249,184.255783 199.265869,181.860672 
	C200.543030,176.716354 202.130585,171.638351 203.823883,166.611649 
	C205.088516,162.857483 203.297699,158.778183 198.884949,156.022202 
	C195.197571,153.719238 191.907089,153.995331 189.226273,157.523514 
	C182.260376,166.691223 176.701065,176.685913 171.739899,187.060654 
	C169.975189,190.751007 174.071625,192.219238 174.233536,195.463257 
	C168.570602,195.582016 165.026993,189.254150 157.932083,190.811966 
	C165.357086,195.138062 174.360138,196.382370 175.773285,206.130371 
	C168.984741,199.182739 159.044846,201.366653 151.297394,197.277725 
	C149.308655,196.228088 146.867935,196.333832 144.987595,198.606766 
	C143.191696,200.777618 139.949280,200.098145 137.437714,201.734589 
z"/>
<path fill="#000000" opacity="1.000000" stroke="none" 
	d="
M167.228073,129.415710 
	C170.524277,127.390656 172.199142,123.515663 176.913651,123.605957 
	C178.669861,123.639587 181.266861,120.332047 182.127792,118.039970 
	C183.878006,113.380341 189.875092,110.446602 188.668060,105.031097 
	C187.359879,99.161873 186.456284,93.167786 183.495590,87.550987 
	C180.153290,81.210258 178.328064,74.069855 175.676498,66.821892 
	C200.992264,85.740585 194.593506,150.421585 175.104370,163.944901 
	C178.658844,158.550919 177.284927,153.714783 173.781296,149.337875 
	C176.004669,147.122910 178.179291,148.656662 180.720825,148.526260 
	C179.621979,146.063614 180.461929,144.422958 184.035095,144.086227 
	C180.569244,141.574173 177.651703,141.614456 175.001541,141.594574 
	C173.847412,143.273026 176.060257,143.503326 175.252121,144.901566 
	C172.271255,143.871902 170.641907,144.978333 171.154602,148.209885 
	C170.561234,148.481888 170.215851,148.792969 169.977646,148.725540 
	C167.852356,148.123871 164.722610,149.755859 163.681198,147.156082 
	C162.602661,144.463547 165.027435,142.301392 166.448380,140.081223 
	C169.211182,135.764450 173.266296,134.024963 178.181702,133.789352 
	C179.175598,133.741714 180.206360,133.720261 181.145599,133.438416 
	C182.837997,132.930557 184.271683,131.955551 183.957672,129.915405 
	C183.605560,127.627701 181.877045,126.887268 179.873016,127.362244 
	C176.492996,128.163345 173.185730,129.268097 169.835861,130.202011 
	C168.880035,130.468491 167.663696,131.722763 167.228073,129.415710 
z"/>
<path fill="#000000" opacity="1.000000" stroke="none" 
	d="
M177.418274,193.549622 
	C173.949203,190.753113 174.071304,188.356766 176.329056,184.833328 
	C181.078720,177.420975 185.175552,169.588776 189.499222,161.905762 
	C191.119186,159.027161 192.208328,155.405533 196.700882,156.615570 
	C199.701904,157.423859 202.605133,163.033920 201.452408,166.697693 
	C200.227707,170.590164 199.171616,174.679031 196.651260,177.893707 
	C194.536911,178.187363 194.968765,175.185394 192.421341,175.717010 
	C188.900787,178.768402 189.786240,183.112122 190.452713,187.324936 
	C190.990219,190.722565 193.748474,190.344238 196.271988,190.033783 
	C198.418442,195.698105 200.466568,201.102890 202.804276,207.271881 
	C199.439133,206.697006 196.769821,206.245300 194.102341,205.783035 
	C193.121552,205.613068 191.851685,204.928925 191.212952,205.311935 
	C186.010651,208.431381 184.900253,204.176422 182.941666,201.056870 
	C181.356674,198.532410 179.419373,196.229126 177.418274,193.549622 
M184.731094,186.601517 
	C184.900238,188.430878 186.077362,189.115112 187.364334,187.992706 
	C189.229248,186.366257 189.515823,184.222595 188.086868,181.927643 
	C186.152954,182.923218 185.842743,184.692596 184.731094,186.601517 
z"/>
<path fill="#000000" opacity="1.000000" stroke="none" 
	d="
M116.154709,149.930573 
	C117.340210,147.926773 116.571556,144.829163 119.870163,145.015778 
	C124.465553,145.275772 127.595627,147.403992 128.133316,153.697906 
	C131.506989,148.053604 128.720505,145.311905 124.819260,141.862762 
	C132.448532,143.138840 132.115784,135.402756 137.824722,133.342804 
	C134.230179,142.750549 127.941345,151.839050 139.964905,159.643585 
	C135.349823,157.310562 133.473373,163.084229 129.707428,162.215332 
	C128.786896,160.290115 130.768097,159.320663 130.620880,157.431259 
	C127.611198,157.391159 126.509743,159.950012 125.038162,161.652802 
	C122.365120,164.745773 119.658173,165.113144 116.342705,162.761993 
	C113.799973,160.958801 111.420921,158.792175 107.753410,158.090561 
	C111.007843,155.825485 114.662704,154.191696 116.154709,149.930573 
z"/>
<path fill="#000000" opacity="1.000000" stroke="none" 
	d="
M153.751862,150.846146 
	C151.399704,149.846039 150.143005,150.940887 148.929108,152.532440 
	C146.113403,156.224121 142.508713,156.425262 138.844772,154.150955 
	C135.703079,152.200790 134.927689,145.806305 137.256409,142.426025 
	C138.547241,140.552292 140.138687,138.885651 141.917786,136.735062 
	C143.374115,142.232224 146.969727,143.709244 151.645615,142.809708 
	C152.855896,144.897659 149.987289,145.828705 150.755157,147.452744 
	C151.423248,149.196854 153.554733,148.628448 154.348145,150.005600 
	C154.420197,150.130646 154.414764,150.349960 154.355804,150.486984 
	C154.296234,150.625381 154.125275,150.715851 153.751862,150.846146 
z"/>
<path fill="#000000" opacity="1.000000" stroke="none" 
	d="
M203.923080,135.493042 
	C203.842941,140.644012 204.627472,145.431213 203.180328,150.157013 
	C195.337158,147.201111 194.588058,134.241531 200.852905,122.943398 
	C201.972549,127.425163 202.924271,131.234726 203.923080,135.493042 
z"/>
<path fill="#000000" opacity="1.000000" stroke="none" 
	d="
M61.973614,35.023373 
	C70.059105,37.441376 78.752144,34.961075 87.730789,37.544750 
	C76.145210,43.736320 71.953758,43.283974 62.244102,35.214249 
	C61.999496,34.986992 61.984756,35.012150 61.973614,35.023373 
z"/>
<path fill="#000000" opacity="1.000000" stroke="none" 
	d="
M103.020897,209.966675 
	C106.112053,210.320755 108.551689,211.414200 110.592506,213.087387 
	C112.567413,214.706528 113.858788,216.770950 111.332146,219.576843 
	C107.357628,214.975418 103.124802,211.130203 95.652046,211.169571 
	C98.742844,208.164444 100.744270,209.786575 103.020897,209.966675 
z"/>
<path fill="#000000" opacity="1.000000" stroke="none" 
	d="
M85.027924,63.969109 
	C83.111008,59.683632 81.194092,55.398159 79.099907,50.716362 
	C82.219864,49.914444 84.586754,49.306087 86.953636,48.697731 
	C82.488869,51.187634 83.935600,54.362328 85.351433,57.553097 
	C86.203072,59.472374 86.077454,61.398930 85.128815,63.647301 
	C85.004128,63.992836 85.027924,63.969105 85.027924,63.969109 
z"/>
<path fill="#000000" opacity="1.000000" stroke="none" 
	d="
M124.571808,27.634264 
	C122.044846,30.098505 120.991539,34.325886 115.354820,32.820457 
	C119.259056,28.898458 122.279381,25.076170 126.948929,21.759623 
	C127.360634,24.833994 125.386269,25.793898 124.571808,27.634264 
z"/>
<path fill="#000000" opacity="1.000000" stroke="none" 
	d="
M184.017685,62.701401 
	C182.103745,65.020966 180.635269,64.005844 179.477432,62.398335 
	C177.424667,59.548336 179.527969,57.628605 181.188919,55.207481 
	C183.655838,57.278259 184.993301,59.376839 184.017685,62.701401 
z"/>
<path fill="#000000" opacity="1.000000" stroke="none" 
	d="
M143.643021,190.217194 
	C141.542114,192.894333 133.124542,196.797836 128.835892,196.716278 
	C133.818405,193.339096 138.715256,191.987900 143.643021,190.217194 
z"/>
<path fill="#000000" opacity="1.000000" stroke="none" 
	d="
M84.991043,64.002472 
	C88.729126,66.711060 88.131920,70.225456 87.164955,74.632111 
	C83.832870,71.349625 85.444389,67.906113 85.027618,64.418587 
	C85.027924,63.969105 85.004128,63.992836 84.991043,64.002472 
z"/>
<path fill="#000000" opacity="1.000000" stroke="none" 
	d="
M41.345978,121.763504 
	C43.692650,122.989220 46.273609,123.375999 47.734283,126.600304 
	C43.574619,125.992645 40.705116,124.431618 37.847656,122.729370 
	C38.479206,120.472015 39.869118,121.467262 41.345978,121.763504 
z"/>
<path fill="#000000" opacity="1.000000" stroke="none" 
	d="
M105.858620,37.246803 
	C104.667480,41.872192 100.480354,40.334850 96.246498,42.084007 
	C99.277039,38.178444 102.581047,38.003326 105.858620,37.246803 
z"/>
<path fill="#000000" opacity="1.000000" stroke="none" 
	d="
M105.003738,165.261322 
	C102.851112,166.048065 101.448723,165.644623 101.304832,163.428192 
	C101.204689,161.885483 102.308449,161.560654 103.606865,161.706024 
	C105.887665,161.961411 106.344040,163.131973 105.003738,165.261322 
z"/>
<path fill="#000000" opacity="1.000000" stroke="none" 
	d="
M81.942551,158.927475 
	C83.474472,158.578506 84.696068,157.694977 86.188309,159.103027 
	C84.805145,160.986328 82.969139,161.913223 80.783752,162.310455 
	C79.488663,160.618103 80.395851,159.781036 81.942551,158.927475 
z"/>
<path fill="#000000" opacity="1.000000" stroke="none" 
	d="
M159.202881,148.475143 
	C159.663330,147.149628 160.398956,145.995178 161.285965,147.264282 
	C162.510239,149.015930 162.139999,150.888031 160.621674,152.406631 
	C158.416946,151.522766 159.237885,150.026825 159.202881,148.475143 
z"/>
</svg>